<?xml version="1.0" encoding="UTF-8" standalone="no"?>
<!DOCTYPE svg PUBLIC "-//W3C//DTD SVG 1.1//EN"
 "http://www.w3.org/Graphics/SVG/1.1/DTD/svg11.dtd">
<!-- Generated by graphviz version 2.43.0 (0)
 -->
<!-- Title: UNet Pages: 1 -->
<svg width="864pt" height="112pt"
 viewBox="0.00 0.00 864.00 112.48" xmlns="http://www.w3.org/2000/svg" xmlns:xlink="http://www.w3.org/1999/xlink">
<g id="graph0" class="graph" transform="scale(0.4 0.4) rotate(0) translate(4 275.35)">
<title>UNet</title>
<polygon fill="white" stroke="transparent" points="-4,4 -4,-275.35 2141.77,-275.35 2141.77,4 -4,4"/>
<!-- I -->
<g id="node1" class="node">
<title>I</title>
<ellipse fill="none" stroke="black" cx="56.57" cy="-37.48" rx="56.64" ry="26.74"/>
<text text-anchor="middle" x="56.57" y="-41.28" font-family="Times,serif" font-size="14.00">Input</text>
<text text-anchor="middle" x="56.57" y="-26.28" font-family="Times,serif" font-size="14.00">256×256×1</text>
</g>
<!-- E1 -->
<g id="node2" class="node">
<title>E1</title>
<ellipse fill="none" stroke="black" cx="256.2" cy="-37.48" rx="106.13" ry="37.45"/>
<text text-anchor="middle" x="256.2" y="-48.78" font-family="Times,serif" font-size="14.00">Encoder Block 1</text>
<text text-anchor="middle" x="256.2" y="-33.78" font-family="Times,serif" font-size="14.00">(Conv→BN→ReLU)×2</text>
<text text-anchor="middle" x="256.2" y="-18.78" font-family="Times,serif" font-size="14.00">32 filters</text>
</g>
<!-- I&#45;&gt;E1 -->
<g id="edge1" class="edge">
<title>I&#45;&gt;E1</title>
<path fill="none" stroke="black" d="M113.15,-37.48C121.61,-37.48 130.61,-37.48 139.8,-37.48"/>
<polygon fill="black" stroke="black" points="139.84,-40.98 149.84,-37.48 139.84,-33.98 139.84,-40.98"/>
</g>
<!-- E2 -->
<g id="node3" class="node">
<title>E2</title>
<ellipse fill="none" stroke="black" cx="475.64" cy="-80.48" rx="76.24" ry="26.74"/>
<text text-anchor="middle" x="475.64" y="-84.28" font-family="Times,serif" font-size="14.00">Encoder Block 2</text>
<text text-anchor="middle" x="475.64" y="-69.28" font-family="Times,serif" font-size="14.00">64 filters</text>
</g>
<!-- E1&#45;&gt;E2 -->
<g id="edge2" class="edge">
<title>E1&#45;&gt;E2</title>
<path fill="none" stroke="black" d="M349.1,-55.65C365.7,-58.93 382.85,-62.32 398.92,-65.5"/>
<polygon fill="black" stroke="black" points="398.29,-68.95 408.78,-67.45 399.65,-62.08 398.29,-68.95"/>
</g>
<!-- D4 -->
<g id="node10" class="node">
<title>D4</title>
<ellipse fill="none" stroke="black" cx="1834.19" cy="-37.48" rx="77.15" ry="26.74"/>
<text text-anchor="middle" x="1834.19" y="-41.28" font-family="Times,serif" font-size="14.00">Decoder Block 4</text>
<text text-anchor="middle" x="1834.19" y="-26.28" font-family="Times,serif" font-size="14.00">32 filters</text>
</g>
<!-- E1&#45;&gt;D4 -->
<g id="edge11" class="edge">
<title>E1&#45;&gt;D4</title>
<path fill="none" stroke="black" stroke-dasharray="5,2" d="M360,-29.47C396.21,-27.27 437.21,-25.48 474.64,-25.48 474.64,-25.48 474.64,-25.48 1644.04,-25.48 1678.63,-25.48 1716.71,-27.5 1749.57,-29.89"/>
<polygon fill="black" stroke="black" points="1749.37,-33.38 1759.6,-30.64 1749.89,-26.4 1749.37,-33.38"/>
<text text-anchor="middle" x="1021.51" y="-29.28" font-family="Times,serif" font-size="14.00">skip</text>
</g>
<!-- E3 -->
<g id="node4" class="node">
<title>E3</title>
<ellipse fill="none" stroke="black" cx="665.37" cy="-133.48" rx="76.24" ry="26.74"/>
<text text-anchor="middle" x="665.37" y="-137.28" font-family="Times,serif" font-size="14.00">Encoder Block 3</text>
<text text-anchor="middle" x="665.37" y="-122.28" font-family="Times,serif" font-size="14.00">128 filters</text>
</g>
<!-- E2&#45;&gt;E3 -->
<g id="edge3" class="edge">
<title>E2&#45;&gt;E3</title>
<path fill="none" stroke="black" d="M535.78,-97.17C554.72,-102.52 575.86,-108.49 595.43,-114.01"/>
<polygon fill="black" stroke="black" points="594.63,-117.42 605.2,-116.77 596.53,-110.69 594.63,-117.42"/>
</g>
<!-- D3 -->
<g id="node9" class="node">
<title>D3</title>
<ellipse fill="none" stroke="black" cx="1643.04" cy="-80.48" rx="77.15" ry="26.74"/>
<text text-anchor="middle" x="1643.04" y="-84.28" font-family="Times,serif" font-size="14.00">Decoder Block 3</text>
<text text-anchor="middle" x="1643.04" y="-69.28" font-family="Times,serif" font-size="14.00">64 filters</text>
</g>
<!-- E2&#45;&gt;D3 -->
<g id="edge12" class="edge">
<title>E2&#45;&gt;D3</title>
<path fill="none" stroke="black" stroke-dasharray="5,2" d="M552,-79.31C586.28,-78.87 627.38,-78.48 664.37,-78.48 664.37,-78.48 664.37,-78.48 1452.89,-78.48 1486.37,-78.48 1523.19,-78.79 1555.38,-79.18"/>
<polygon fill="black" stroke="black" points="1555.61,-82.68 1565.65,-79.3 1555.7,-75.68 1555.61,-82.68"/>
<text text-anchor="middle" x="1021.51" y="-82.28" font-family="Times,serif" font-size="14.00">skip</text>
</g>
<!-- E4 -->
<g id="node5" class="node">
<title>E4</title>
<ellipse fill="none" stroke="black" cx="855.11" cy="-186.48" rx="76.24" ry="26.74"/>
<text text-anchor="middle" x="855.11" y="-190.28" font-family="Times,serif" font-size="14.00">Encoder Block 4</text>
<text text-anchor="middle" x="855.11" y="-175.28" font-family="Times,serif" font-size="14.00">256 filters</text>
</g>
<!-- E3&#45;&gt;E4 -->
<g id="edge4" class="edge">
<title>E3&#45;&gt;E4</title>
<path fill="none" stroke="black" d="M725.51,-150.17C744.46,-155.52 765.59,-161.49 785.17,-167.01"/>
<polygon fill="black" stroke="black" points="784.36,-170.42 794.94,-169.77 786.27,-163.69 784.36,-170.42"/>
</g>
<!-- D2 -->
<g id="node8" class="node">
<title>D2</title>
<ellipse fill="none" stroke="black" cx="1451.89" cy="-133.48" rx="77.15" ry="26.74"/>
<text text-anchor="middle" x="1451.89" y="-137.28" font-family="Times,serif" font-size="14.00">Decoder Block 2</text>
<text text-anchor="middle" x="1451.89" y="-122.28" font-family="Times,serif" font-size="14.00">128 filters</text>
</g>
<!-- E3&#45;&gt;D2 -->
<g id="edge13" class="edge">
<title>E3&#45;&gt;D2</title>
<path fill="none" stroke="black" stroke-dasharray="5,2" d="M741.73,-132.31C776.02,-131.87 817.11,-131.48 854.11,-131.48 854.11,-131.48 854.11,-131.48 1225.68,-131.48 1271.55,-131.48 1322.68,-131.9 1364.61,-132.35"/>
<polygon fill="black" stroke="black" points="1364.75,-135.85 1374.79,-132.46 1364.83,-128.85 1364.75,-135.85"/>
<text text-anchor="middle" x="1021.51" y="-135.28" font-family="Times,serif" font-size="14.00">skip</text>
</g>
<!-- B -->
<g id="node6" class="node">
<title>B</title>
<ellipse fill="none" stroke="black" cx="1021.51" cy="-244.48" rx="53.07" ry="26.74"/>
<text text-anchor="middle" x="1021.51" y="-248.28" font-family="Times,serif" font-size="14.00">Bottleneck</text>
<text text-anchor="middle" x="1021.51" y="-233.28" font-family="Times,serif" font-size="14.00">512 filters</text>
</g>
<!-- E4&#45;&gt;B -->
<g id="edge5" class="edge">
<title>E4&#45;&gt;B</title>
<path fill="none" stroke="black" d="M909.94,-205.47C928.6,-212.05 949.48,-219.42 968.03,-225.96"/>
<polygon fill="black" stroke="black" points="966.9,-229.28 977.49,-229.3 969.23,-222.67 966.9,-229.28"/>
</g>
<!-- D1 -->
<g id="node7" class="node">
<title>D1</title>
<ellipse fill="none" stroke="black" cx="1224.68" cy="-196.48" rx="113.27" ry="37.45"/>
<text text-anchor="middle" x="1224.68" y="-207.78" font-family="Times,serif" font-size="14.00">Decoder Block 1</text>
<text text-anchor="middle" x="1224.68" y="-192.78" font-family="Times,serif" font-size="14.00">UpSample + Skip + Conv</text>
<text text-anchor="middle" x="1224.68" y="-177.78" font-family="Times,serif" font-size="14.00">256 filters</text>
</g>
<!-- E4&#45;&gt;D1 -->
<g id="edge14" class="edge">
<title>E4&#45;&gt;D1</title>
<path fill="none" stroke="black" stroke-dasharray="5,2" d="M931.38,-188.52C980.42,-189.86 1045.51,-191.63 1101.83,-193.16"/>
<polygon fill="black" stroke="black" points="1101.78,-196.66 1111.87,-193.43 1101.97,-189.66 1101.78,-196.66"/>
<text text-anchor="middle" x="1021.51" y="-195.28" font-family="Times,serif" font-size="14.00">skip</text>
</g>
<!-- B&#45;&gt;D1 -->
<g id="edge6" class="edge">
<title>B&#45;&gt;D1</title>
<path fill="none" stroke="black" d="M1069.67,-233.22C1085.52,-229.44 1103.86,-225.06 1122.24,-220.68"/>
<polygon fill="black" stroke="black" points="1123.23,-224.04 1132.14,-218.32 1121.6,-217.23 1123.23,-224.04"/>
</g>
<!-- D1&#45;&gt;D2 -->
<g id="edge7" class="edge">
<title>D1&#45;&gt;D2</title>
<path fill="none" stroke="black" d="M1311.78,-172.39C1334.83,-165.94 1359.44,-159.06 1381.46,-152.9"/>
<polygon fill="black" stroke="black" points="1382.69,-156.19 1391.38,-150.12 1380.81,-149.45 1382.69,-156.19"/>
</g>
<!-- D2&#45;&gt;D3 -->
<g id="edge8" class="edge">
<title>D2&#45;&gt;D3</title>
<path fill="none" stroke="black" d="M1512.48,-116.78C1531.56,-111.43 1552.86,-105.47 1572.58,-99.94"/>
<polygon fill="black" stroke="black" points="1573.74,-103.25 1582.42,-97.18 1571.85,-96.51 1573.74,-103.25"/>
</g>
<!-- D3&#45;&gt;D4 -->
<g id="edge9" class="edge">
<title>D3&#45;&gt;D4</title>
<path fill="none" stroke="black" d="M1708.08,-65.92C1724.56,-62.17 1742.43,-58.11 1759.37,-54.26"/>
<polygon fill="black" stroke="black" points="1760.24,-57.65 1769.22,-52.02 1758.69,-50.82 1760.24,-57.65"/>
</g>
<!-- O -->
<g id="node11" class="node">
<title>O</title>
<ellipse fill="none" stroke="black" cx="2043.01" cy="-37.48" rx="94.51" ry="26.74"/>
<text text-anchor="middle" x="2043.01" y="-41.28" font-family="Times,serif" font-size="14.00">Output Layer</text>
<text text-anchor="middle" x="2043.01" y="-26.28" font-family="Times,serif" font-size="14.00">1×1 Conv + Sigmoid</text>
</g>
<!-- D4&#45;&gt;O -->
<g id="edge10" class="edge">
<title>D4&#45;&gt;O</title>
<path fill="none" stroke="black" d="M1911.32,-37.48C1920.02,-37.48 1929.01,-37.48 1937.99,-37.48"/>
<polygon fill="black" stroke="black" points="1938.13,-40.98 1948.13,-37.48 1938.13,-33.98 1938.13,-40.98"/>
</g>
</g>
</svg>
